<?xml version="1.0" encoding="utf-8" standalone="no"?>
<!DOCTYPE svg PUBLIC "-//W3C//DTD SVG 1.1//EN"
  "http://www.w3.org/Graphics/SVG/1.1/DTD/svg11.dtd">
<svg xmlns:xlink="http://www.w3.org/1999/xlink" width="460.8pt" height="345.6pt" viewBox="0 0 460.8 345.6" xmlns="http://www.w3.org/2000/svg" version="1.1">
 <metadata>
  <rdf:RDF xmlns:dc="http://purl.org/dc/elements/1.1/" xmlns:cc="http://creativecommons.org/ns#" xmlns:rdf="http://www.w3.org/1999/02/22-rdf-syntax-ns#">
   <cc:Work>
    <dc:type rdf:resource="http://purl.org/dc/dcmitype/StillImage"/>
    <dc:date>2023-03-02T23:26:13.144599</dc:date>
    <dc:format>image/svg+xml</dc:format>
    <dc:creator>
     <cc:Agent>
      <dc:title>Matplotlib v3.5.2, https://matplotlib.org/</dc:title>
     </cc:Agent>
    </dc:creator>
   </cc:Work>
  </rdf:RDF>
 </metadata>
 <defs>
  <style type="text/css">*{stroke-linejoin: round; stroke-linecap: butt}</style>
 </defs>
 <g id="figure_1">
  <g id="patch_1">
   <path d="M 0 345.6 
L 460.8 345.6 
L 460.8 0 
L 0 0 
z
" style="fill: #ffffff"/>
  </g>
  <g id="axes_1">
   <g id="patch_2">
    <path d="M 57.6 307.584 
L 414.72 307.584 
L 414.72 41.472 
L 57.6 41.472 
z
" style="fill: #ffffff"/>
   </g>
   <g id="Quiver_1">
    <path d="M 73.832727 306.51264 
L 82.032939 306.51264 
L 80.961579 304.36992 
L 91.675179 307.584 
L 80.961579 310.79808 
L 82.032939 308.65536 
L 73.832727 308.65536 
L 73.832727 306.51264 
" clip-path="url(#p1eb916a644)" style="fill-opacity: 0.2"/>
    <path d="M 108.462545 306.51264 
L 116.662758 306.51264 
L 115.591398 304.36992 
L 126.304998 307.584 
L 115.591398 310.79808 
L 116.662758 308.65536 
L 108.462545 308.65536 
L 108.462545 306.51264 
" clip-path="url(#p1eb916a644)" style="fill-opacity: 0.2"/>
    <path d="M 143.092364 306.51264 
L 151.292576 306.51264 
L 150.221216 304.36992 
L 160.934816 307.584 
L 150.221216 310.79808 
L 151.292576 308.65536 
L 143.092364 308.65536 
L 143.092364 306.51264 
" clip-path="url(#p1eb916a644)" style="fill-opacity: 0.2"/>
    <path d="M 177.722182 306.51264 
L 185.922394 306.51264 
L 184.851034 304.36992 
L 195.564634 307.584 
L 184.851034 310.79808 
L 185.922394 308.65536 
L 177.722182 308.65536 
L 177.722182 306.51264 
" clip-path="url(#p1eb916a644)" style="fill-opacity: 0.2"/>
    <path d="M 212.352 306.51264 
L 220.552212 306.51264 
L 219.480852 304.36992 
L 230.194452 307.584 
L 219.480852 310.79808 
L 220.552212 308.65536 
L 212.352 308.65536 
L 212.352 306.51264 
" clip-path="url(#p1eb916a644)" style="fill-opacity: 0.2"/>
    <path d="M 246.981818 306.51264 
L 255.18203 306.51264 
L 254.11067 304.36992 
L 264.82427 307.584 
L 254.11067 310.79808 
L 255.18203 308.65536 
L 246.981818 308.65536 
L 246.981818 306.51264 
" clip-path="url(#p1eb916a644)" style="fill-opacity: 0.2"/>
    <path d="M 281.611636 306.51264 
L 289.811849 306.51264 
L 288.740489 304.36992 
L 299.454089 307.584 
L 288.740489 310.79808 
L 289.811849 308.65536 
L 281.611636 308.65536 
L 281.611636 306.51264 
" clip-path="url(#p1eb916a644)" style="fill-opacity: 0.2"/>
    <path d="M 316.241455 306.51264 
L 324.441667 306.51264 
L 323.370307 304.36992 
L 334.083907 307.584 
L 323.370307 310.79808 
L 324.441667 308.65536 
L 316.241455 308.65536 
L 316.241455 306.51264 
" clip-path="url(#p1eb916a644)" style="fill-opacity: 0.2"/>
    <path d="M 350.871273 306.51264 
L 359.071485 306.51264 
L 358.000125 304.36992 
L 368.713725 307.584 
L 358.000125 310.79808 
L 359.071485 308.65536 
L 350.871273 308.65536 
L 350.871273 306.51264 
" clip-path="url(#p1eb916a644)" style="fill-opacity: 0.2"/>
    <path d="M 385.501091 306.51264 
L 393.701303 306.51264 
L 392.629943 304.36992 
L 403.343543 307.584 
L 392.629943 310.79808 
L 393.701303 308.65536 
L 385.501091 308.65536 
L 385.501091 306.51264 
" clip-path="url(#p1eb916a644)" style="fill-opacity: 0.2"/>
    <path d="M 73.804168 278.127741 
L 82.007806 277.908977 
L 80.879708 275.795578 
L 91.675179 278.722921 
L 81.051065 282.221454 
L 82.064925 280.050936 
L 73.861287 280.269699 
L 73.804168 278.127741 
" clip-path="url(#p1eb916a644)" style="fill-opacity: 0.2"/>
    <path d="M 108.427201 278.127943 
L 116.632662 277.857098 
L 115.491197 275.750888 
L 126.304998 278.609778 
L 115.703262 282.175549 
L 116.70335 279.998652 
L 108.49789 280.269497 
L 108.427201 278.127943 
" clip-path="url(#p1eb916a644)" style="fill-opacity: 0.2"/>
    <path d="M 143.048627 278.128253 
L 151.256877 277.792888 
L 150.098938 275.69569 
L 160.934816 278.469729 
L 150.361355 282.118491 
L 151.34435 279.933821 
L 143.1361 280.269187 
L 143.048627 278.128253 
" clip-path="url(#p1eb916a644)" style="fill-opacity: 0.2"/>
    <path d="M 177.668069 278.128727 
L 185.880588 277.713397 
L 184.702371 275.627525 
L 195.564634 278.296377 
L 185.027046 282.04748 
L 185.988813 279.853382 
L 177.776294 280.268713 
L 177.668069 278.128727 
" clip-path="url(#p1eb916a644)" style="fill-opacity: 0.2"/>
    <path d="M 212.285065 278.129453 
L 220.504114 277.61495 
L 219.300977 275.54335 
L 230.194452 278.081802 
L 219.702587 281.958953 
L 220.637984 279.753484 
L 212.418935 280.267987 
L 212.285065 278.129453 
" clip-path="url(#p1eb916a644)" style="fill-opacity: 0.2"/>
    <path d="M 246.899052 278.130562 
L 255.12808 277.492938 
L 253.89439 275.439387 
L 264.82427 277.816202 
L 254.390986 281.848337 
L 255.293612 279.629254 
L 247.064584 280.266878 
L 246.899052 278.130562 
" clip-path="url(#p1eb916a644)" style="fill-opacity: 0.2"/>
    <path d="M 281.509351 278.132254 
L 289.753608 277.341544 
L 288.482572 275.310897 
L 299.454089 277.487443 
L 289.096283 281.709694 
L 289.958179 279.474476 
L 281.713922 280.265186 
L 281.509351 278.132254 
" clip-path="url(#p1eb916a644)" style="fill-opacity: 0.2"/>
    <path d="M 316.115152 278.134831 
L 324.382603 277.153339 
L 323.066109 275.151863 
L 334.083907 277.080507 
L 323.823923 281.535198 
L 324.635207 279.281117 
L 316.367757 280.262609 
L 316.115152 278.134831 
" clip-path="url(#p1eb916a644)" style="fill-opacity: 0.2"/>
    <path d="M 350.715511 278.138743 
L 359.018173 276.918681 
L 357.646673 274.954489 
L 368.713725 276.576801 
L 358.581244 281.314349 
L 359.329697 279.038634 
L 351.027035 280.258697 
L 350.715511 278.138743 
" clip-path="url(#p1eb916a644)" style="fill-opacity: 0.2"/>
    <path d="M 385.309365 278.144655 
L 393.665231 276.624788 
L 392.227713 274.708384 
L 403.343543 275.953317 
L 393.378071 281.032775 
L 394.048683 278.732918 
L 385.692817 280.252785 
L 385.309365 278.144655 
" clip-path="url(#p1eb916a644)" style="fill-opacity: 0.2"/>
    <path d="M 73.775669 249.7436 
L 81.989566 249.305526 
L 80.80561 247.222905 
L 91.675179 249.861843 
L 81.147958 253.641942 
L 82.103682 251.445205 
L 73.889785 251.88328 
L 73.775669 249.7436 
" clip-path="url(#p1eb916a644)" style="fill-opacity: 0.2"/>
    <path d="M 108.391972 249.744407 
L 116.613127 249.20168 
L 115.402948 247.134187 
L 126.304998 249.635555 
L 115.826386 253.548386 
L 116.754273 251.339747 
L 108.533119 251.882473 
L 108.391972 249.744407 
" clip-path="url(#p1eb916a644)" style="fill-opacity: 0.2"/>
    <path d="M 143.005109 249.745639 
L 151.237353 249.072948 
L 149.995043 247.0246 
L 160.934816 249.355458 
L 150.51857 253.431406 
L 151.411862 251.20855 
L 143.179618 251.881241 
L 143.005109 249.745639 
" clip-path="url(#p1eb916a644)" style="fill-opacity: 0.2"/>
    <path d="M 177.614369 249.747519 
L 185.863528 248.913152 
L 184.58198 246.889122 
L 195.564634 249.008754 
L 185.228859 253.284651 
L 186.079154 251.044995 
L 177.829995 251.879361 
L 177.614369 249.747519 
" clip-path="url(#p1eb916a644)" style="fill-opacity: 0.2"/>
    <path d="M 212.218907 249.750379 
L 220.493811 248.714379 
L 219.164564 246.72135 
L 230.194452 248.579604 
L 219.963122 253.099716 
L 220.759997 250.840501 
L 212.485093 251.876501 
L 212.218907 249.750379 
" clip-path="url(#p1eb916a644)" style="fill-opacity: 0.2"/>
    <path d="M 246.817749 249.754717 
L 255.131698 248.466309 
L 253.744836 246.512934 
L 264.82427 248.048404 
L 254.729254 252.865269 
L 255.459837 250.583754 
L 247.145888 251.872163 
L 246.817749 249.754717 
" clip-path="url(#p1eb916a644)" style="fill-opacity: 0.2"/>
    <path d="M 281.409807 249.761263 
L 289.782663 248.155175 
L 288.326827 246.25265 
L 299.454089 247.390887 
L 289.537804 252.565714 
L 290.186322 250.259529 
L 281.813466 251.865617 
L 281.409807 249.761263 
" clip-path="url(#p1eb916a644)" style="fill-opacity: 0.2"/>
    <path d="M 315.993957 249.77106 
L 324.454985 247.762113 
L 322.917608 245.92485 
L 334.083907 246.577013 
L 324.402595 252.179133 
L 324.94998 249.846874 
L 316.488952 251.85582 
L 315.993957 249.77106 
" clip-path="url(#p1eb916a644)" style="fill-opacity: 0.2"/>
    <path d="M 350.56918 249.785553 
L 359.160647 247.260549 
L 357.528574 245.506867 
L 368.713725 245.569603 
L 359.34113 251.674191 
L 359.764832 249.316324 
L 351.173365 251.841327 
L 350.56918 249.785553 
" clip-path="url(#p1eb916a644)" style="fill-opacity: 0.2"/>
    <path d="M 385.134829 249.806631 
L 393.915999 246.612178 
L 392.176667 244.964821 
L 403.343543 244.322633 
L 394.374236 251.005676 
L 394.648522 248.625796 
L 385.867352 251.820249 
L 385.134829 249.806631 
" clip-path="url(#p1eb916a644)" style="fill-opacity: 0.2"/>
    <path d="M 73.747291 221.360212 
L 81.978211 220.701738 
L 80.739392 218.651278 
L 91.675179 221.000764 
L 81.252007 225.058966 
L 82.149083 222.837634 
L 73.918163 223.496108 
L 73.747291 221.360212 
" clip-path="url(#p1eb916a644)" style="fill-opacity: 0.2"/>
    <path d="M 108.356972 221.362014 
L 116.604113 220.545351 
L 115.32682 218.518634 
L 126.304998 220.661333 
L 115.960263 224.915507 
L 116.815261 222.677642 
L 108.568119 223.494306 
L 108.356972 221.362014 
" clip-path="url(#p1eb916a644)" style="fill-opacity: 0.2"/>
    <path d="M 142.962021 221.364758 
L 151.233858 220.350868 
L 149.909772 218.354407 
L 160.934816 220.241187 
L 150.691827 224.734817 
L 151.494544 222.477671 
L 143.222706 223.491562 
L 142.962021 221.364758 
" clip-path="url(#p1eb916a644)" style="fill-opacity: 0.2"/>
    <path d="M 177.561476 221.368922 
L 185.870783 220.108246 
L 184.490133 218.150476 
L 195.564634 219.72113 
L 185.454369 224.505906 
L 186.192195 222.226723 
L 177.882888 223.487398 
L 177.561476 221.368922 
" clip-path="url(#p1eb916a644)" style="fill-opacity: 0.2"/>
    <path d="M 212.154259 221.375207 
L 220.520131 219.804124 
L 219.071696 217.895958 
L 230.194452 219.077406 
L 220.258142 224.213678 
L 220.915613 221.91003 
L 212.549741 223.481113 
L 212.154259 221.375207 
" clip-path="url(#p1eb916a644)" style="fill-opacity: 0.2"/>
    <path d="M 246.739244 221.384623 
L 255.189861 219.420241 
L 253.661175 217.575741 
L 264.82427 218.280607 
L 255.116623 223.836964 
L 255.67501 221.507315 
L 247.224393 223.471697 
L 246.739244 221.384623 
" clip-path="url(#p1eb916a644)" style="fill-opacity: 0.2"/>
    <path d="M 281.315392 221.398572 
L 289.891552 218.930943 
L 288.269475 217.168012 
L 299.454089 217.29433 
L 290.046942 223.34554 
L 290.484041 220.990119 
L 281.907881 223.457748 
L 281.315392 221.398572 
" clip-path="url(#p1eb916a644)" style="fill-opacity: 0.2"/>
    <path d="M 315.882003 221.418899 
L 324.641109 218.299319 
L 322.912946 216.640249 
L 334.083907 216.07352 
L 325.069653 222.695813 
L 325.360011 220.31784 
L 316.600906 223.437421 
L 315.882003 221.418899 
" clip-path="url(#p1eb916a644)" style="fill-opacity: 0.2"/>
    <path d="M 350.439101 221.447834 
L 359.458616 217.471626 
L 357.613946 215.943145 
L 368.713725 214.562404 
L 360.206978 221.825103 
L 360.32296 219.432278 
L 351.303445 223.408486 
L 350.439101 221.447834 
" clip-path="url(#p1eb916a644)" style="fill-opacity: 0.2"/>
    <path d="M 384.987907 221.487706 
L 394.36627 216.370152 
L 392.399447 215.002427 
L 403.343543 212.69195 
L 395.478551 220.645153 
L 395.392638 218.25106 
L 386.014275 223.368614 
L 384.987907 221.487706 
" clip-path="url(#p1eb916a644)" style="fill-opacity: 0.2"/>
    <path d="M 73.719093 192.977563 
L 81.973696 192.097072 
L 80.681111 190.080073 
L 91.675179 192.139685 
L 81.362914 196.471973 
L 82.200963 194.227706 
L 73.946361 195.108197 
L 73.719093 192.977563 
" clip-path="url(#p1eb916a644)" style="fill-opacity: 0.2"/>
    <path d="M 108.322309 192.980738 
L 116.605482 191.887096 
L 115.262867 189.903049 
L 126.304998 191.687111 
L 116.104285 196.275902 
L 116.885954 194.011381 
L 108.602782 195.105022 
L 108.322309 192.980738 
" clip-path="url(#p1eb916a644)" style="fill-opacity: 0.2"/>
    <path d="M 142.919565 192.985547 
L 151.246021 191.624767 
L 149.843091 189.6829 
L 160.934816 191.126915 
L 150.879881 196.026897 
L 151.591617 193.739433 
L 143.265162 195.100213 
L 142.919565 192.985547 
" clip-path="url(#p1eb916a644)" style="fill-opacity: 0.2"/>
    <path d="M 177.509758 192.99279 
L 185.901403 191.295234 
L 184.426465 189.407478 
L 195.564634 190.433507 
L 185.701009 195.708016 
L 186.326251 193.395413 
L 177.934606 195.09297 
L 177.509758 192.99279 
" clip-path="url(#p1eb916a644)" style="fill-opacity: 0.2"/>
    <path d="M 212.09177 193.003605 
L 220.580747 190.878003 
L 219.021012 189.059682 
L 230.194452 189.575209 
L 220.582391 195.295333 
L 221.101206 192.956553 
L 212.61223 195.082155 
L 212.09177 193.003605 
" clip-path="url(#p1eb916a644)" style="fill-opacity: 0.2"/>
    <path d="M 246.664647 193.019545 
L 255.297084 190.344016 
L 253.639406 188.614518 
L 264.82427 188.512809 
L 255.542434 194.754528 
L 255.931427 192.390686 
L 247.29899 195.066215 
L 246.664647 193.019545 
" clip-path="url(#p1eb916a644)" style="fill-opacity: 0.2"/>
    <path d="M 281.227889 193.042605 
L 290.067865 189.651223 
L 288.300096 188.034419 
L 299.454089 187.197774 
L 290.602578 194.03607 
L 290.835359 191.651773 
L 281.995383 195.043155 
L 281.227889 193.042605 
" clip-path="url(#p1eb916a644)" style="fill-opacity: 0.2"/>
    <path d="M 315.781883 193.075096 
L 324.914279 188.738391 
L 323.027351 187.262395 
L 334.083907 185.570027 
L 325.784783 193.069099 
L 325.833423 190.673959 
L 316.701027 195.010664 
L 315.781883 193.075096 
" clip-path="url(#p1eb916a644)" style="fill-opacity: 0.2"/>
    <path d="M 350.328375 193.11926 
L 359.858245 187.517666 
L 357.84883 186.213323 
L 368.713725 183.555206 
L 361.106216 191.755044 
L 360.944041 189.364906 
L 351.41417 194.9665 
L 350.328375 193.11926 
" clip-path="url(#p1eb916a644)" style="fill-opacity: 0.2"/>
    <path d="M 384.870779 193.176555 
L 394.916303 185.867744 
L 392.789354 184.765405 
L 403.343543 181.061267 
L 396.571223 189.963357 
L 396.176926 187.600395 
L 386.131402 194.909205 
L 384.870779 193.176555 
" clip-path="url(#p1eb916a644)" style="fill-opacity: 0.2"/>
    <path d="M 73.691132 164.595638 
L 81.975927 163.490999 
L 80.630775 161.50867 
L 91.675179 163.278606 
L 81.480345 167.880441 
L 82.259117 165.614923 
L 73.974322 166.719562 
L 73.691132 164.595638 
" clip-path="url(#p1eb916a644)" style="fill-opacity: 0.2"/>
    <path d="M 108.288089 164.600539 
L 116.616996 163.22594 
L 115.211021 161.286275 
L 126.304998 162.712888 
L 116.257763 167.628639 
L 116.965909 165.340061 
L 108.637002 166.714661 
L 108.288089 164.600539 
" clip-path="url(#p1eb916a644)" style="fill-opacity: 0.2"/>
    <path d="M 142.877929 164.607919 
L 151.273253 162.892875 
L 149.794703 161.007948 
L 160.934816 162.012644 
L 151.081311 167.306034 
L 151.702122 164.992237 
L 143.306798 166.707281 
L 142.877929 164.607919 
" clip-path="url(#p1eb916a644)" style="fill-opacity: 0.2"/>
    <path d="M 177.45954 164.618932 
L 185.953979 162.470993 
L 184.390027 160.656299 
L 195.564634 161.145884 
L 185.965878 166.888307 
L 186.479263 164.548329 
L 177.984824 166.696268 
L 177.45954 164.618932 
" clip-path="url(#p1eb916a644)" style="fill-opacity: 0.2"/>
    <path d="M 212.03198 164.635152 
L 220.672403 161.930747 
L 219.009914 160.205873 
L 230.194452 160.073011 
L 220.930037 166.340558 
L 221.312444 163.975643 
L 212.67202 166.680048 
L 212.03198 164.635152 
" clip-path="url(#p1eb916a644)" style="fill-opacity: 0.2"/>
    <path d="M 246.59478 164.658594 
L 255.446176 161.229353 
L 253.673093 159.618379 
L 264.82427 158.745011 
L 255.995325 165.612416 
L 256.220253 163.227365 
L 247.368857 166.656606 
L 246.59478 164.658594 
" clip-path="url(#p1eb916a644)" style="fill-opacity: 0.2"/>
    <path d="M 281.148377 164.691575 
L 290.296609 160.304523 
L 288.404066 158.835733 
L 299.454089 157.101217 
L 291.18362 164.63188 
L 291.223127 162.236572 
L 282.074895 166.623625 
L 281.148377 164.691575 
" clip-path="url(#p1eb916a644)" style="fill-opacity: 0.2"/>
    <path d="M 315.694594 164.736321 
L 325.245531 159.066998 
L 323.230531 157.7713 
L 334.083907 155.066533 
L 326.511694 163.298977 
L 326.339252 160.909557 
L 316.788315 166.578879 
L 315.694594 164.736321 
" clip-path="url(#p1eb916a644)" style="fill-opacity: 0.2"/>
    <path d="M 350.236919 164.79423 
L 360.309042 157.393822 
L 358.176965 156.301436 
L 368.713725 152.548007 
L 361.983088 161.481655 
L 361.57775 159.120561 
L 351.505627 166.52097 
L 350.236919 164.79423 
" clip-path="url(#p1eb916a644)" style="fill-opacity: 0.2"/>
    <path d="M 384.780256 164.865004 
L 395.489343 155.125506 
L 393.255076 154.261149 
L 403.343543 149.430583 
L 397.580088 159.016725 
L 396.931013 156.710698 
L 386.221926 166.450196 
L 384.780256 164.865004 
" clip-path="url(#p1eb916a644)" style="fill-opacity: 0.2"/>
    <path d="M 73.663463 136.214416 
L 81.984775 134.883006 
L 80.588341 132.936462 
L 91.675179 134.417528 
L 81.60393 139.283888 
L 82.323305 136.998814 
L 74.001992 138.330224 
L 73.663463 136.214416 
" clip-path="url(#p1eb916a644)" style="fill-opacity: 0.2"/>
    <path d="M 108.254408 136.221372 
L 116.638331 134.560957 
L 115.171108 132.667199 
L 126.304998 133.738666 
L 116.419934 138.972885 
L 117.054606 136.662852 
L 108.670683 138.323268 
L 108.254408 136.221372 
" clip-path="url(#p1eb916a644)" style="fill-opacity: 0.2"/>
    <path d="M 142.83728 136.23177 
L 151.31478 134.153573 
L 149.764064 132.327555 
L 160.934816 132.898373 
L 151.294563 138.570857 
L 151.824947 136.234673 
L 143.347447 138.31287 
L 142.83728 136.23177 
" clip-path="url(#p1eb916a644)" style="fill-opacity: 0.2"/>
    <path d="M 177.411098 136.247118 
L 186.026733 133.632816 
L 184.379363 131.893496 
L 195.564634 131.858261 
L 186.245867 138.044708 
L 186.648901 135.68322 
L 178.033266 138.297522 
L 177.411098 136.247118 
" clip-path="url(#p1eb916a644)" style="fill-opacity: 0.2"/>
    <path d="M 211.975299 136.26937 
L 220.791202 132.958175 
L 219.03485 131.328977 
L 230.194452 130.570813 
L 221.295058 137.346676 
L 221.544605 134.964075 
L 212.728701 138.27527 
L 211.975299 136.26937 
" clip-path="url(#p1eb916a644)" style="fill-opacity: 0.2"/>
    <path d="M 246.530159 136.300818 
L 255.629094 132.070646 
L 253.754273 130.579302 
L 264.82427 128.977213 
L 256.464229 136.408314 
L 256.532412 134.01365 
L 247.433478 138.243822 
L 246.530159 136.300818 
" clip-path="url(#p1eb916a644)" style="fill-opacity: 0.2"/>
    <path d="M 281.077272 136.343737 
L 290.562475 130.885359 
L 288.565163 129.562557 
L 299.454089 127.00466 
L 291.771351 135.134056 
L 291.631205 132.742525 
L 282.146001 138.200903 
L 281.077272 136.343737 
" clip-path="url(#p1eb916a644)" style="fill-opacity: 0.2"/>
    <path d="M 315.619884 136.399702 
L 325.608774 129.284559 
L 323.493015 128.160893 
L 334.083907 124.56304 
L 327.222439 133.396601 
L 326.851916 131.029794 
L 316.863025 138.144938 
L 315.619884 136.399702 
" clip-path="url(#p1eb916a644)" style="fill-opacity: 0.2"/>
    <path d="M 350.162737 136.468709 
L 360.772695 127.114017 
L 358.552013 126.215331 
L 368.713725 121.540809 
L 362.803225 131.036994 
L 362.189765 128.721238 
L 351.579808 138.075931 
L 350.162737 136.468709 
" clip-path="url(#p1eb916a644)" style="fill-opacity: 0.2"/>
    <path d="M 384.711187 136.548536 
L 396.039581 124.185254 
L 393.735989 123.52759 
L 403.343543 117.7999 
L 398.475414 127.870295 
L 397.61939 125.632823 
L 386.290995 137.996104 
L 384.711187 136.548536 
" clip-path="url(#p1eb916a644)" style="fill-opacity: 0.2"/>
    <path d="M 73.636136 107.833871 
L 82.000071 106.272604 
L 80.553719 104.362858 
L 91.675179 105.556449 
L 81.733268 110.681869 
L 82.393254 108.378941 
L 74.029319 109.940209 
L 73.636136 107.833871 
" clip-path="url(#p1eb916a644)" style="fill-opacity: 0.2"/>
    <path d="M 108.221356 107.843182 
L 116.669084 105.891288 
L 115.142848 104.044761 
L 126.304998 104.764444 
L 116.589983 110.30791 
L 117.151463 107.979004 
L 108.703735 109.930898 
L 108.221356 107.843182 
" clip-path="url(#p1eb916a644)" style="fill-opacity: 0.2"/>
    <path d="M 142.797767 107.856979 
L 151.369674 105.405416 
L 149.750419 103.639892 
L 160.934816 103.784102 
L 151.518001 109.820255 
L 151.958868 107.465537 
L 143.386961 109.917101 
L 142.797767 107.856979 
" clip-path="url(#p1eb916a644)" style="fill-opacity: 0.2"/>
    <path d="M 177.364652 107.877097 
L 186.117618 104.778462 
L 184.392615 103.116106 
L 195.564634 102.570638 
L 186.537793 109.175763 
L 186.832677 106.798348 
L 178.079711 109.896983 
L 177.364652 107.877097 
" clip-path="url(#p1eb916a644)" style="fill-opacity: 0.2"/>
    <path d="M 211.922009 107.905755 
L 220.932898 103.957253 
L 219.091631 102.424675 
L 230.194452 101.068615 
L 221.671579 108.312383 
L 221.792881 105.919822 
L 212.781991 109.868325 
L 211.922009 107.905755 
" clip-path="url(#p1eb916a644)" style="fill-opacity: 0.2"/>
    <path d="M 246.471019 107.945288 
L 255.837707 102.864861 
L 253.874356 101.492157 
L 264.82427 99.209416 
L 256.939154 107.142667 
L 256.859306 104.748364 
L 247.492618 109.828792 
L 246.471019 107.945288 
" clip-path="url(#p1eb916a644)" style="fill-opacity: 0.2"/>
    <path d="M 281.014458 107.997551 
L 290.851512 101.393221 
L 288.767666 100.211422 
L 299.454089 96.908104 
L 292.350737 105.548355 
L 292.045869 103.172199 
L 282.208815 109.776529 
L 281.014458 107.997551 
" clip-path="url(#p1eb916a644)" style="fill-opacity: 0.2"/>
    <path d="M 315.556711 108.063063 
L 325.983371 99.398266 
L 323.789906 98.435056 
L 334.083907 94.059547 
L 327.89837 103.378917 
L 327.352859 101.046219 
L 316.926199 109.711017 
L 315.556711 108.063063 
" clip-path="url(#p1eb916a644)" style="fill-opacity: 0.2"/>
    <path d="M 350.103089 108.140243 
L 361.224368 96.700469 
L 358.941204 95.975059 
L 368.713725 90.53361 
L 363.550307 100.455841 
L 362.760736 98.194063 
L 351.639457 109.633837 
L 350.103089 108.140243 
" clip-path="url(#p1eb916a644)" style="fill-opacity: 0.2"/>
    <path d="M 384.65853 108.225297 
L 396.545298 93.090522 
L 394.198434 92.609598 
L 403.343543 86.169217 
L 399.253799 96.580054 
L 398.23042 94.414008 
L 386.343652 109.548783 
L 384.65853 108.225297 
" clip-path="url(#p1eb916a644)" style="fill-opacity: 0.2"/>
    <path d="M 73.6092 79.453978 
L 82.021611 77.65933 
L 80.526775 75.787292 
L 91.675179 76.69537 
L 81.867936 82.073987 
L 82.468665 79.754895 
L 74.056254 81.549542 
L 73.6092 79.453978 
" clip-path="url(#p1eb916a644)" style="fill-opacity: 0.2"/>
    <path d="M 108.189014 79.465906 
L 116.708783 77.216147 
L 115.125867 75.417971 
L 126.304998 75.790221 
L 116.767053 81.633093 
L 117.255845 79.287855 
L 108.736077 81.537614 
L 108.189014 79.465906 
" clip-path="url(#p1eb916a644)" style="fill-opacity: 0.2"/>
    <path d="M 142.759511 79.483417 
L 151.43688 76.647159 
L 149.752833 74.943326 
L 160.934816 74.669831 
L 151.749947 81.053382 
L 152.102585 78.683844 
L 143.425216 81.520103 
L 142.759511 79.483417 
" clip-path="url(#p1eb916a644)" style="fill-opacity: 0.2"/>
    <path d="M 177.320368 79.508604 
L 186.22442 75.90618 
L 184.427637 74.321682 
L 195.564634 73.283015 
L 186.838518 80.280616 
L 187.028046 77.892492 
L 178.123995 81.494916 
L 177.320368 79.508604 
" clip-path="url(#p1eb916a644)" style="fill-opacity: 0.2"/>
    <path d="M 211.872267 79.54381 
L 221.093168 74.926064 
L 219.175752 73.489897 
L 230.194452 71.566417 
L 222.05415 79.237598 
L 222.052634 76.841964 
L 212.831733 81.45971 
L 211.872267 79.54381 
" clip-path="url(#p1eb916a644)" style="fill-opacity: 0.2"/>
    <path d="M 246.417356 79.591158 
L 256.064395 73.611172 
L 254.02487 72.354431 
L 264.82427 69.441618 
L 257.41164 77.81804 
L 257.193318 75.432375 
L 247.54628 81.412362 
L 246.417356 79.591158 
" clip-path="url(#p1eb916a644)" style="fill-opacity: 0.2"/>
    <path d="M 280.959457 79.651775 
L 291.152044 71.831175 
L 288.997701 70.783384 
L 299.454089 66.811547 
L 292.910776 75.883294 
L 292.456402 73.531145 
L 282.263816 81.351745 
L 280.959457 79.651775 
" clip-path="url(#p1eb916a644)" style="fill-opacity: 0.2"/>
    <path d="M 315.503662 79.724924 
L 326.354591 69.419353 
L 324.102169 68.603474 
L 334.083907 63.556053 
L 328.528926 73.264489 
L 327.830177 70.973025 
L 316.979247 81.278596 
L 315.503662 79.724924 
" clip-path="url(#p1eb916a644)" style="fill-opacity: 0.2"/>
    <path d="M 350.055219 79.807593 
L 361.650165 66.176729 
L 359.32389 65.604449 
L 368.713725 59.526412 
L 364.220213 69.769453 
L 363.282272 67.565064 
L 351.687327 81.195927 
L 350.055219 79.807593 
" clip-path="url(#p1eb916a644)" style="fill-opacity: 0.2"/>
    <path d="M 384.61813 79.894971 
L 396.999486 61.878393 
L 394.626775 61.547777 
L 403.343543 54.538533 
L 399.924541 65.188508 
L 398.765407 63.09197 
L 386.384052 81.108549 
L 384.61813 79.894971 
" clip-path="url(#p1eb916a644)" style="fill-opacity: 0.2"/>
    <path d="M 73.582701 51.074703 
L 82.049161 49.042753 
L 80.507331 47.209225 
L 91.675179 47.834291 
L 82.00749 53.459887 
L 82.549214 51.126306 
L 74.082754 53.158257 
L 73.582701 51.074703 
" clip-path="url(#p1eb916a644)" style="fill-opacity: 0.2"/>
    <path d="M 108.157453 51.089479 
L 116.756897 48.534831 
L 115.119711 46.785922 
L 126.304998 46.815999 
L 116.950266 52.947927 
L 117.367082 50.588833 
L 108.767638 53.143481 
L 108.157453 51.089479 
" clip-path="url(#p1eb916a644)" style="fill-opacity: 0.2"/>
    <path d="M 142.722615 51.110946 
L 151.515264 47.877766 
L 149.770232 46.236447 
L 160.934816 45.55556 
L 151.988725 52.269649 
L 152.254761 49.888833 
L 143.462113 53.122014 
L 142.722615 51.110946 
" clip-path="url(#p1eb916a644)" style="fill-opacity: 0.2"/>
    <path d="M 177.278357 51.141374 
L 186.344855 47.014708 
L 184.482099 45.508321 
L 195.564634 43.995391 
L 187.145048 51.358957 
L 187.232504 48.964921 
L 178.166007 53.091586 
L 177.278357 51.141374 
" clip-path="url(#p1eb916a644)" style="fill-opacity: 0.2"/>
    <path d="M 211.826123 51.183064 
L 221.267831 45.863699 
L 219.282661 44.522744 
L 230.194452 42.064219 
L 222.437925 50.12324 
L 222.319586 47.730531 
L 212.877877 53.049896 
L 211.826123 51.183064 
" clip-path="url(#p1eb916a644)" style="fill-opacity: 0.2"/>
    <path d="M 246.36899 51.2377 
L 256.302424 44.310494 
L 254.197988 43.165763 
L 264.82427 39.67382 
L 257.874957 48.438441 
L 257.528081 46.068054 
L 247.594646 52.99526 
L 246.36899 51.2377 
" clip-path="url(#p1eb916a644)" style="fill-opacity: 0.2"/>
    <path d="M 280.91158 51.305472 
L 291.454964 42.204491 
L 289.243844 41.282533 
L 299.454089 36.714991 
L 293.444183 46.148578 
L 292.855077 43.826506 
L 282.311693 52.927488 
L 280.91158 51.305472 
" clip-path="url(#p1eb916a644)" style="fill-opacity: 0.2"/>
    <path d="M 315.459244 51.384388 
L 326.712865 39.360361 
L 324.416352 38.678386 
L 334.083907 33.05256 
L 329.109614 43.07094 
L 328.277286 40.824545 
L 317.023665 52.848572 
L 315.459244 51.384388 
" clip-path="url(#p1eb916a644)" style="fill-opacity: 0.2"/>
    <path d="M 350.016703 51.47032 
L 362.043713 35.564179 
L 359.688413 35.126428 
L 368.713725 28.519213 
L 364.815831 39.00339 
L 363.752852 36.8565 
L 351.725842 52.76264 
L 350.016703 51.47032 
" clip-path="url(#p1eb916a644)" style="fill-opacity: 0.2"/>
    <path d="M 384.586818 51.557985 
L 397.402814 30.577814 
L 395.015773 30.375097 
L 403.343543 22.90785 
L 400.501412 33.726067 
L 399.231361 31.694804 
L 386.415364 52.674975 
L 384.586818 51.557985 
" clip-path="url(#p1eb916a644)" style="fill-opacity: 0.2"/>
   </g>
   <g id="matplotlib.axis_1">
    <g id="xtick_1">
     <g id="line2d_1">
      <defs>
       <path id="m36f0318c8e" d="M 0 0 
L 0 3.5 
" style="stroke: #000000; stroke-width: 0.8"/>
      </defs>
      <g>
       <use xlink:href="#m36f0318c8e" x="73.832727" y="307.584" style="stroke: #000000; stroke-width: 0.8"/>
      </g>
     </g>
     <g id="text_1">
      <!-- 0.0 -->
      <g transform="translate(65.881165 322.182437)scale(0.1 -0.1)">
       <defs>
        <path id="DejaVuSerif-30" d="M 2034 219 
Q 2513 219 2750 744 
Q 2988 1269 2988 2328 
Q 2988 3391 2750 3916 
Q 2513 4441 2034 4441 
Q 1556 4441 1318 3916 
Q 1081 3391 1081 2328 
Q 1081 1269 1318 744 
Q 1556 219 2034 219 
z
M 2034 -91 
Q 1275 -91 848 546 
Q 422 1184 422 2328 
Q 422 3475 848 4112 
Q 1275 4750 2034 4750 
Q 2797 4750 3222 4112 
Q 3647 3475 3647 2328 
Q 3647 1184 3222 546 
Q 2797 -91 2034 -91 
z
" transform="scale(0.015625)"/>
        <path id="DejaVuSerif-2e" d="M 603 325 
Q 603 500 722 622 
Q 841 744 1019 744 
Q 1191 744 1312 622 
Q 1434 500 1434 325 
Q 1434 153 1312 31 
Q 1191 -91 1019 -91 
Q 841 -91 722 29 
Q 603 150 603 325 
z
" transform="scale(0.015625)"/>
       </defs>
       <use xlink:href="#DejaVuSerif-30"/>
       <use xlink:href="#DejaVuSerif-2e" x="63.623047"/>
       <use xlink:href="#DejaVuSerif-30" x="95.410156"/>
      </g>
     </g>
    </g>
    <g id="xtick_2">
     <g id="line2d_2">
      <g>
       <use xlink:href="#m36f0318c8e" x="138.763636" y="307.584" style="stroke: #000000; stroke-width: 0.8"/>
      </g>
     </g>
     <g id="text_2">
      <!-- 0.2 -->
      <g transform="translate(130.812074 322.182437)scale(0.1 -0.1)">
       <defs>
        <path id="DejaVuSerif-32" d="M 819 3553 
L 469 3553 
L 469 4384 
Q 803 4563 1142 4656 
Q 1481 4750 1806 4750 
Q 2534 4750 2956 4397 
Q 3378 4044 3378 3438 
Q 3378 2753 2422 1800 
Q 2347 1728 2309 1691 
L 1131 513 
L 3078 513 
L 3078 1088 
L 3444 1088 
L 3444 0 
L 434 0 
L 434 341 
L 1850 1753 
Q 2319 2222 2519 2614 
Q 2719 3006 2719 3438 
Q 2719 3909 2473 4175 
Q 2228 4441 1797 4441 
Q 1350 4441 1106 4219 
Q 863 3997 819 3553 
z
" transform="scale(0.015625)"/>
       </defs>
       <use xlink:href="#DejaVuSerif-30"/>
       <use xlink:href="#DejaVuSerif-2e" x="63.623047"/>
       <use xlink:href="#DejaVuSerif-32" x="95.410156"/>
      </g>
     </g>
    </g>
    <g id="xtick_3">
     <g id="line2d_3">
      <g>
       <use xlink:href="#m36f0318c8e" x="203.694545" y="307.584" style="stroke: #000000; stroke-width: 0.8"/>
      </g>
     </g>
     <g id="text_3">
      <!-- 0.4 -->
      <g transform="translate(195.742983 322.182437)scale(0.1 -0.1)">
       <defs>
        <path id="DejaVuSerif-34" d="M 2234 1581 
L 2234 4063 
L 641 1581 
L 2234 1581 
z
M 3609 0 
L 1484 0 
L 1484 331 
L 2234 331 
L 2234 1247 
L 197 1247 
L 197 1588 
L 2241 4750 
L 2859 4750 
L 2859 1581 
L 3750 1581 
L 3750 1247 
L 2859 1247 
L 2859 331 
L 3609 331 
L 3609 0 
z
" transform="scale(0.015625)"/>
       </defs>
       <use xlink:href="#DejaVuSerif-30"/>
       <use xlink:href="#DejaVuSerif-2e" x="63.623047"/>
       <use xlink:href="#DejaVuSerif-34" x="95.410156"/>
      </g>
     </g>
    </g>
    <g id="xtick_4">
     <g id="line2d_4">
      <g>
       <use xlink:href="#m36f0318c8e" x="268.625455" y="307.584" style="stroke: #000000; stroke-width: 0.8"/>
      </g>
     </g>
     <g id="text_4">
      <!-- 0.6 -->
      <g transform="translate(260.673892 322.182437)scale(0.1 -0.1)">
       <defs>
        <path id="DejaVuSerif-36" d="M 2094 219 
Q 2534 219 2771 542 
Q 3009 866 3009 1472 
Q 3009 2078 2771 2401 
Q 2534 2725 2094 2725 
Q 1647 2725 1412 2412 
Q 1178 2100 1178 1509 
Q 1178 888 1415 553 
Q 1653 219 2094 219 
z
M 1075 2569 
Q 1288 2803 1556 2918 
Q 1825 3034 2163 3034 
Q 2859 3034 3264 2615 
Q 3669 2197 3669 1472 
Q 3669 763 3233 336 
Q 2797 -91 2069 -91 
Q 1278 -91 853 498 
Q 428 1088 428 2181 
Q 428 3406 931 4078 
Q 1434 4750 2350 4750 
Q 2597 4750 2869 4703 
Q 3141 4656 3425 4563 
L 3425 3794 
L 3072 3794 
Q 3034 4109 2831 4275 
Q 2628 4441 2284 4441 
Q 1678 4441 1381 3981 
Q 1084 3522 1075 2569 
z
" transform="scale(0.015625)"/>
       </defs>
       <use xlink:href="#DejaVuSerif-30"/>
       <use xlink:href="#DejaVuSerif-2e" x="63.623047"/>
       <use xlink:href="#DejaVuSerif-36" x="95.410156"/>
      </g>
     </g>
    </g>
    <g id="xtick_5">
     <g id="line2d_5">
      <g>
       <use xlink:href="#m36f0318c8e" x="333.556364" y="307.584" style="stroke: #000000; stroke-width: 0.8"/>
      </g>
     </g>
     <g id="text_5">
      <!-- 0.8 -->
      <g transform="translate(325.604801 322.182437)scale(0.1 -0.1)">
       <defs>
        <path id="DejaVuSerif-38" d="M 2981 1275 
Q 2981 1775 2732 2051 
Q 2484 2328 2034 2328 
Q 1584 2328 1336 2051 
Q 1088 1775 1088 1275 
Q 1088 772 1336 495 
Q 1584 219 2034 219 
Q 2484 219 2732 495 
Q 2981 772 2981 1275 
z
M 2853 3541 
Q 2853 3966 2637 4203 
Q 2422 4441 2034 4441 
Q 1650 4441 1433 4203 
Q 1216 3966 1216 3541 
Q 1216 3113 1433 2875 
Q 1650 2638 2034 2638 
Q 2422 2638 2637 2875 
Q 2853 3113 2853 3541 
z
M 2516 2484 
Q 3047 2413 3344 2092 
Q 3641 1772 3641 1275 
Q 3641 619 3225 264 
Q 2809 -91 2034 -91 
Q 1263 -91 845 264 
Q 428 619 428 1275 
Q 428 1772 725 2092 
Q 1022 2413 1556 2484 
Q 1084 2569 832 2842 
Q 581 3116 581 3541 
Q 581 4103 968 4426 
Q 1356 4750 2034 4750 
Q 2713 4750 3100 4426 
Q 3488 4103 3488 3541 
Q 3488 3116 3236 2842 
Q 2984 2569 2516 2484 
z
" transform="scale(0.015625)"/>
       </defs>
       <use xlink:href="#DejaVuSerif-30"/>
       <use xlink:href="#DejaVuSerif-2e" x="63.623047"/>
       <use xlink:href="#DejaVuSerif-38" x="95.410156"/>
      </g>
     </g>
    </g>
    <g id="xtick_6">
     <g id="line2d_6">
      <g>
       <use xlink:href="#m36f0318c8e" x="398.487273" y="307.584" style="stroke: #000000; stroke-width: 0.8"/>
      </g>
     </g>
     <g id="text_6">
      <!-- 1.0 -->
      <g transform="translate(390.53571 322.182437)scale(0.1 -0.1)">
       <defs>
        <path id="DejaVuSerif-31" d="M 909 0 
L 909 331 
L 1722 331 
L 1722 4213 
L 781 3603 
L 781 4013 
L 1919 4750 
L 2350 4750 
L 2350 331 
L 3163 331 
L 3163 0 
L 909 0 
z
" transform="scale(0.015625)"/>
       </defs>
       <use xlink:href="#DejaVuSerif-31"/>
       <use xlink:href="#DejaVuSerif-2e" x="63.623047"/>
       <use xlink:href="#DejaVuSerif-30" x="95.410156"/>
      </g>
     </g>
    </g>
   </g>
   <g id="matplotlib.axis_2">
    <g id="ytick_1">
     <g id="line2d_7">
      <defs>
       <path id="mca14e2b0e6" d="M 0 0 
L -3.5 0 
" style="stroke: #000000; stroke-width: 0.8"/>
      </defs>
      <g>
       <use xlink:href="#mca14e2b0e6" x="57.6" y="307.584" style="stroke: #000000; stroke-width: 0.8"/>
      </g>
     </g>
     <g id="text_7">
      <!-- 0.0 -->
      <g transform="translate(34.696875 311.383219)scale(0.1 -0.1)">
       <use xlink:href="#DejaVuSerif-30"/>
       <use xlink:href="#DejaVuSerif-2e" x="63.623047"/>
       <use xlink:href="#DejaVuSerif-30" x="95.410156"/>
      </g>
     </g>
    </g>
    <g id="ytick_2">
     <g id="line2d_8">
      <g>
       <use xlink:href="#mca14e2b0e6" x="57.6" y="254.3616" style="stroke: #000000; stroke-width: 0.8"/>
      </g>
     </g>
     <g id="text_8">
      <!-- 0.2 -->
      <g transform="translate(34.696875 258.160819)scale(0.1 -0.1)">
       <use xlink:href="#DejaVuSerif-30"/>
       <use xlink:href="#DejaVuSerif-2e" x="63.623047"/>
       <use xlink:href="#DejaVuSerif-32" x="95.410156"/>
      </g>
     </g>
    </g>
    <g id="ytick_3">
     <g id="line2d_9">
      <g>
       <use xlink:href="#mca14e2b0e6" x="57.6" y="201.1392" style="stroke: #000000; stroke-width: 0.8"/>
      </g>
     </g>
     <g id="text_9">
      <!-- 0.4 -->
      <g transform="translate(34.696875 204.938419)scale(0.1 -0.1)">
       <use xlink:href="#DejaVuSerif-30"/>
       <use xlink:href="#DejaVuSerif-2e" x="63.623047"/>
       <use xlink:href="#DejaVuSerif-34" x="95.410156"/>
      </g>
     </g>
    </g>
    <g id="ytick_4">
     <g id="line2d_10">
      <g>
       <use xlink:href="#mca14e2b0e6" x="57.6" y="147.9168" style="stroke: #000000; stroke-width: 0.8"/>
      </g>
     </g>
     <g id="text_10">
      <!-- 0.6 -->
      <g transform="translate(34.696875 151.716019)scale(0.1 -0.1)">
       <use xlink:href="#DejaVuSerif-30"/>
       <use xlink:href="#DejaVuSerif-2e" x="63.623047"/>
       <use xlink:href="#DejaVuSerif-36" x="95.410156"/>
      </g>
     </g>
    </g>
    <g id="ytick_5">
     <g id="line2d_11">
      <g>
       <use xlink:href="#mca14e2b0e6" x="57.6" y="94.6944" style="stroke: #000000; stroke-width: 0.8"/>
      </g>
     </g>
     <g id="text_11">
      <!-- 0.8 -->
      <g transform="translate(34.696875 98.493619)scale(0.1 -0.1)">
       <use xlink:href="#DejaVuSerif-30"/>
       <use xlink:href="#DejaVuSerif-2e" x="63.623047"/>
       <use xlink:href="#DejaVuSerif-38" x="95.410156"/>
      </g>
     </g>
    </g>
    <g id="ytick_6">
     <g id="line2d_12">
      <g>
       <use xlink:href="#mca14e2b0e6" x="57.6" y="41.472" style="stroke: #000000; stroke-width: 0.8"/>
      </g>
     </g>
     <g id="text_12">
      <!-- 1.0 -->
      <g transform="translate(34.696875 45.271219)scale(0.1 -0.1)">
       <use xlink:href="#DejaVuSerif-31"/>
       <use xlink:href="#DejaVuSerif-2e" x="63.623047"/>
       <use xlink:href="#DejaVuSerif-30" x="95.410156"/>
      </g>
     </g>
    </g>
   </g>
   <g id="line2d_13">
    <path d="M 73.832727 304.92288 
L 80.45833 304.812016 
L 87.083933 304.696533 
L 93.709536 304.576239 
L 100.335139 304.450933 
L 106.960742 304.320407 
L 113.586345 304.184443 
L 120.211948 304.042815 
L 126.837551 303.895287 
L 133.463154 303.741612 
L 140.088757 303.581535 
L 146.71436 303.41479 
L 153.339963 303.241097 
L 159.965566 303.060168 
L 166.591169 302.871702 
L 173.216772 302.675384 
L 179.842375 302.470888 
L 186.467978 302.257871 
L 193.093581 302.035981 
L 199.719184 301.804846 
L 206.344787 301.564082 
L 212.97039 301.313288 
L 219.595993 301.052045 
L 226.221596 300.779919 
L 232.847199 300.496456 
L 239.472801 300.201183 
L 246.098404 299.893609 
L 252.724007 299.573222 
L 259.34961 299.239487 
L 265.975213 298.891848 
L 272.600816 298.529726 
L 279.226419 298.152518 
L 285.852022 297.759596 
L 292.477625 297.350303 
L 299.103228 296.92396 
L 305.728831 296.479854 
L 312.354434 296.017247 
L 318.980037 295.535367 
L 325.60564 295.033412 
L 332.231243 294.510545 
L 338.856846 293.965895 
L 345.482449 293.398554 
L 352.108052 292.807578 
L 358.733655 292.191981 
L 365.359258 291.550738 
L 371.984861 290.88278 
L 378.610464 290.186994 
L 385.236067 289.462222 
L 391.86167 288.707255 
L 398.487273 287.920835 
" clip-path="url(#p1eb916a644)" style="fill: none; stroke: #000000; stroke-width: 1.5; stroke-linecap: square"/>
   </g>
   <g id="line2d_14">
    <path d="M 73.832727 296.93952 
L 80.45833 296.496063 
L 87.083933 296.034131 
L 93.709536 295.552955 
L 100.335139 295.051732 
L 106.960742 294.529628 
L 113.586345 293.985773 
L 120.211948 293.419261 
L 126.837551 292.829147 
L 133.463154 292.214448 
L 140.088757 291.574141 
L 146.71436 290.907158 
L 153.339963 290.212388 
L 159.965566 289.488674 
L 166.591169 288.734809 
L 173.216772 287.949537 
L 179.842375 287.13155 
L 186.467978 286.279485 
L 193.093581 285.391923 
L 199.719184 284.467384 
L 206.344787 283.504328 
L 212.97039 282.501151 
L 219.595993 281.45618 
L 226.221596 280.367676 
L 232.847199 279.233823 
L 239.472801 278.052733 
L 246.098404 276.822438 
L 252.724007 275.540887 
L 259.34961 274.205947 
L 265.975213 272.815392 
L 272.600816 271.366905 
L 279.226419 269.858073 
L 285.852022 268.286382 
L 292.477625 266.649214 
L 299.103228 264.943839 
L 305.728831 263.167418 
L 312.354434 261.316989 
L 318.980037 259.38947 
L 325.60564 257.381649 
L 332.231243 255.290181 
L 338.856846 253.111581 
L 345.482449 250.842218 
L 352.108052 248.478312 
L 358.733655 246.015924 
L 365.359258 243.450951 
L 371.984861 240.779119 
L 378.610464 237.995977 
L 385.236067 235.096887 
L 391.86167 232.077019 
L 398.487273 228.93134 
" clip-path="url(#p1eb916a644)" style="fill: none; stroke: #000000; stroke-width: 1.5; stroke-linecap: square"/>
   </g>
   <g id="line2d_15">
    <path d="M 73.832727 288.95616 
L 80.45833 288.18011 
L 87.083933 287.371729 
L 93.709536 286.529671 
L 100.335139 285.652531 
L 106.960742 284.738849 
L 113.586345 283.787103 
L 120.211948 282.795706 
L 126.837551 281.763007 
L 133.463154 280.687285 
L 140.088757 279.566747 
L 146.71436 278.399527 
L 153.339963 277.183679 
L 159.965566 275.917179 
L 166.591169 274.597915 
L 173.216772 273.223689 
L 179.842375 271.792213 
L 186.467978 270.3011 
L 193.093581 268.747866 
L 199.719184 267.129923 
L 206.344787 265.444575 
L 212.97039 263.689014 
L 219.595993 261.860316 
L 226.221596 259.955432 
L 232.847199 257.97119 
L 239.472801 255.904282 
L 246.098404 253.751266 
L 252.724007 251.508553 
L 259.34961 249.172407 
L 265.975213 246.738936 
L 272.600816 244.204084 
L 279.226419 241.563628 
L 285.852022 238.813169 
L 292.477625 235.948124 
L 299.103228 232.963719 
L 305.728831 229.854981 
L 312.354434 226.616731 
L 318.980037 223.243572 
L 325.60564 219.729886 
L 332.231243 216.069817 
L 338.856846 212.257266 
L 345.482449 208.285881 
L 352.108052 204.149046 
L 358.733655 199.839867 
L 365.359258 195.351164 
L 371.984861 190.675459 
L 378.610464 185.80496 
L 385.236067 180.731552 
L 391.86167 175.446782 
L 398.487273 169.941845 
" clip-path="url(#p1eb916a644)" style="fill: none; stroke: #000000; stroke-width: 1.5; stroke-linecap: square"/>
   </g>
   <g id="line2d_16">
    <path d="M 73.832727 280.9728 
L 80.45833 279.864157 
L 87.083933 278.709327 
L 93.709536 277.506386 
L 100.335139 276.25333 
L 106.960742 274.948071 
L 113.586345 273.588433 
L 120.211948 272.172152 
L 126.837551 270.696867 
L 133.463154 269.160121 
L 140.088757 267.559353 
L 146.71436 265.891895 
L 153.339963 264.154971 
L 159.965566 262.345684 
L 166.591169 260.461021 
L 173.216772 258.497842 
L 179.842375 256.452875 
L 186.467978 254.322714 
L 193.093581 252.103808 
L 199.719184 249.792461 
L 206.344787 247.384821 
L 212.97039 244.876878 
L 219.595993 242.264451 
L 226.221596 239.543189 
L 232.847199 236.708557 
L 239.472801 233.755832 
L 246.098404 230.680094 
L 252.724007 227.476219 
L 259.34961 224.138867 
L 265.975213 220.662479 
L 272.600816 217.041263 
L 279.226419 213.269183 
L 285.852022 209.339956 
L 292.477625 205.247034 
L 299.103228 200.983598 
L 305.728831 196.542544 
L 312.354434 191.916472 
L 318.980037 187.097675 
L 325.60564 182.078123 
L 332.231243 176.849452 
L 338.856846 171.402951 
L 345.482449 165.729545 
L 352.108052 159.81978 
L 358.733655 153.66381 
L 365.359258 147.251378 
L 371.984861 140.571798 
L 378.610464 133.613943 
L 385.236067 126.366217 
L 391.86167 118.816546 
L 398.487273 110.95235 
" clip-path="url(#p1eb916a644)" style="fill: none; stroke: #000000; stroke-width: 1.5; stroke-linecap: square"/>
   </g>
   <g id="line2d_17">
    <path d="M 73.832727 272.98944 
L 80.45833 271.548204 
L 87.083933 270.046926 
L 93.709536 268.483102 
L 100.335139 266.854129 
L 106.960742 265.157292 
L 113.586345 263.389763 
L 120.211948 261.548597 
L 126.837551 259.630727 
L 133.463154 257.632957 
L 140.088757 255.551959 
L 146.71436 253.384264 
L 153.339963 251.126262 
L 159.965566 248.774189 
L 166.591169 246.324128 
L 173.216772 243.771995 
L 179.842375 241.113538 
L 186.467978 238.344328 
L 193.093581 235.45975 
L 199.719184 232.454999 
L 206.344787 229.325068 
L 212.97039 226.064741 
L 219.595993 222.668586 
L 226.221596 219.130945 
L 232.847199 215.445924 
L 239.472801 211.607381 
L 246.098404 207.608922 
L 252.724007 203.443884 
L 259.34961 199.105327 
L 265.975213 194.586023 
L 272.600816 189.878441 
L 279.226419 184.974738 
L 285.852022 179.866743 
L 292.477625 174.545944 
L 299.103228 169.003478 
L 305.728831 163.230107 
L 312.354434 157.216214 
L 318.980037 150.951777 
L 325.60564 144.42636 
L 332.231243 137.629088 
L 338.856846 130.548637 
L 345.482449 123.173208 
L 352.108052 115.490514 
L 358.733655 107.487753 
L 365.359258 99.151591 
L 371.984861 90.468138 
L 378.610464 81.422925 
L 385.236067 72.000883 
L 391.86167 62.18631 
L 398.487273 51.962855 
" clip-path="url(#p1eb916a644)" style="fill: none; stroke: #000000; stroke-width: 1.5; stroke-linecap: square"/>
   </g>
   <g id="patch_3">
    <path d="M 57.6 307.584 
L 57.6 41.472 
" style="fill: none; stroke: #000000; stroke-width: 0.8; stroke-linejoin: miter; stroke-linecap: square"/>
   </g>
   <g id="patch_4">
    <path d="M 57.6 307.584 
L 414.72 307.584 
" style="fill: none; stroke: #000000; stroke-width: 0.8; stroke-linejoin: miter; stroke-linecap: square"/>
   </g>
  </g>
 </g>
 <defs>
  <clipPath id="p1eb916a644">
   <rect x="57.6" y="41.472" width="357.12" height="266.112"/>
  </clipPath>
 </defs>
</svg>
